<svg xmlns="http://www.w3.org/2000/svg" xmlns:xlink="http://www.w3.org/1999/xlink" width="108" height="107" viewBox="0 0 108 107">
  <defs>
    <linearGradient id="a" x1="0%" y1="0%" y2="100%">
      <stop offset="0%" stop-color="#8E9EAB"/>
      <stop offset="100%" stop-color="#EEF2F3"/>
    </linearGradient>
    <path id="b" d="M42.8228238,24.1703298 C36.5189493,24.1703298 31.528382,23.9526159 27.8482976,23.5164835 C27.9210237,24.7530139 27.9570338,25.4244746 27.9570338,25.5343884 C27.9570338,26.3347865 27.8115815,27.7164595 27.5199708,29.6794075 C26.9367494,33.7145128 26.6267807,36.587068 26.5907707,38.2956642 L27.8482976,38.2956642 C29.1601926,34.260559 31.0722549,31.5528744 33.5858966,30.1704968 C36.0642344,28.8254617 40.290118,28.1518873 46.2663718,28.1518873 L65.3947615,28.1518873 L25.826087,81.6510277 L31.1816972,81.6510277 L73.5379722,24.1703298 L42.8228238,24.1703298 Z M67.0349833,81.6510277 C71.0779925,81.6510277 75.5601828,81.8708553 80.47873,82.3076923 C80.6234762,80.8161055 81.2984879,78.1612641 82.5009407,74.3452819 C83.7768256,70.3087675 84.4497191,67.4918737 84.5217391,65.8917822 L83.2677426,65.8917822 C81.7355509,69.3096791 79.5664758,72.1089585 76.7626355,74.290325 C73.8465287,76.5463765 68.9470456,77.6715839 62.0592437,77.6715839 L44.5174137,77.6715839 L83.9222779,24.1703298 L78.6196237,24.1703298 L36.1560247,81.6510277 L67.0349833,81.6510277 Z"/>
  </defs>
  <g fill="none" fill-rule="evenodd">
    <rect width="108" height="107" fill="url(#a)"/>
    <mask id="c" fill="white">
      <use xlink:href="#b"/>
    </mask>
    <use fill="#FFFFFE" xlink:href="#b"/>
    <g fill="#2C2C2E" mask="url(#c)">
      <rect width="108" height="107"/>
    </g>
  </g>
</svg>
